HIERARCHY
ROOT Hips
{
	OFFSET 0.000000 83.214638 0.000000
	CHANNELS 6 Xposition Yposition Zposition Xrotation Yrotation Zrotation
	JOINT Pelvis
	{
		OFFSET 0.000000 0.000000 0.000000
		CHANNELS 3 Xrotation Yrotation Zrotation
		JOINT LeftUpLeg
		{
			OFFSET 8.479700 -4.795502 -0.379100
			CHANNELS 3 Xrotation Yrotation Zrotation
			JOINT LeftLeg
			{
				OFFSET 0.024144 -32.555107 0.112900
				CHANNELS 3 Xrotation Yrotation Zrotation
				JOINT LeftFoot
				{
					OFFSET -0.024144 -32.638630 -3.012600
					CHANNELS 3 Xrotation Yrotation Zrotation
					JOINT LeftToeBase
					{
						OFFSET 0.970200 -13.225400 11.864200
						CHANNELS 3 Xrotation Yrotation Zrotation
						End Site
						{
							OFFSET 0.000000 12.319262 0.000000
						}
					}
					JOINT LFootTongue
					{
						OFFSET 1.142400 -1.059800 6.665200
						CHANNELS 3 Xrotation Yrotation Zrotation
						End Site
						{
							OFFSET 0.000000 12.319262 0.000000
						}
					}
				}
				JOINT LeftPantLeg
				{
					OFFSET 0.918482 -16.533964 -2.284700
					CHANNELS 3 Xrotation Yrotation Zrotation
					End Site
					{
						OFFSET 0.350399 24.744368 0.000000
					}
				}
			}
		}
		JOINT RightUpLeg
		{
			OFFSET -8.479700 -4.795502 -0.379100
			CHANNELS 3 Xrotation Yrotation Zrotation
			JOINT RightLeg
			{
				OFFSET -0.023144 -32.555092 0.112900
				CHANNELS 3 Xrotation Yrotation Zrotation
				JOINT RightFoot
				{
					OFFSET 0.023144 -32.638641 -3.012700
					CHANNELS 3 Xrotation Yrotation Zrotation
					JOINT RightToeBase
					{
						OFFSET -0.970200 -13.225400 11.864200
						CHANNELS 3 Xrotation Yrotation Zrotation
						End Site
						{
							OFFSET 0.000000 12.319244 0.000000
						}
					}
					JOINT RFootTongue
					{
						OFFSET -1.142200 -1.059800 6.665200
						CHANNELS 3 Xrotation Yrotation Zrotation
						End Site
						{
							OFFSET 0.000000 12.319243 0.000000
						}
					}
				}
				JOINT RightPantLeg
				{
					OFFSET -0.919482 -16.533978 -2.284800
					CHANNELS 3 Xrotation Yrotation Zrotation
					End Site
					{
						OFFSET -0.350400 24.744419 0.000000
					}
				}
			}
		}
	}
	JOINT Spine
	{
		OFFSET 0.000000 7.722000 1.166200
		CHANNELS 3 Xrotation Yrotation Zrotation
		JOINT Spine1
		{
			OFFSET 0.000000 12.024101 0.248800
			CHANNELS 3 Xrotation Yrotation Zrotation
			JOINT Spine2
			{
				OFFSET 0.000000 11.502998 -0.491200
				CHANNELS 3 Xrotation Yrotation Zrotation
				JOINT Neck
				{
					OFFSET 0.000000 18.430702 -3.123100
					CHANNELS 3 Xrotation Yrotation Zrotation
					JOINT Head
					{
						OFFSET 0.000000 9.051102 1.034000
						CHANNELS 3 Xrotation Yrotation Zrotation
						JOINT HairB
						{
							OFFSET 0.208400 24.786102 24.822300
							CHANNELS 3 Xrotation Yrotation Zrotation
							End Site
							{
								OFFSET 0.000000 32.263779 0.000000
							}
						}
						JOINT HairA
						{
							OFFSET -7.081100 24.428299 23.196600
							CHANNELS 3 Xrotation Yrotation Zrotation
							End Site
							{
								OFFSET 0.000000 32.263779 0.000000
							}
						}
						JOINT Hat
						{
							OFFSET 16.728800 15.048294 -15.439601
							CHANNELS 3 Xrotation Yrotation Zrotation
							End Site
							{
								OFFSET 0.000000 32.263779 0.000000
							}
						}
					}
				}
				JOINT LeftShoulder
				{
					OFFSET 6.197800 13.665199 -4.064700
					CHANNELS 3 Xrotation Yrotation Zrotation
					JOINT LeftArm
					{
						OFFSET 7.778100 -0.187103 -1.709300
						CHANNELS 3 Xrotation Yrotation Zrotation
						JOINT LeftForeArm
						{
							OFFSET 22.049376 0.000000 0.000000
							CHANNELS 3 Xrotation Yrotation Zrotation
							JOINT LeftHand
							{
								OFFSET 23.009392 0.000000 0.000000
								CHANNELS 3 Xrotation Yrotation Zrotation
								JOINT LeftHandThumb1
								{
									OFFSET 3.507191 -2.063065 3.133727
									CHANNELS 3 Xrotation Yrotation Zrotation
									JOINT LeftHandThumb2
									{
										OFFSET 3.101337 -1.790558 1.790558
										CHANNELS 3 Xrotation Yrotation Zrotation
										JOINT LeftHandThumb3
										{
											OFFSET 3.058640 -1.765907 1.765906
											CHANNELS 3 Xrotation Yrotation Zrotation
											End Site
											{
												OFFSET -0.415260 3.926476 -0.049563
											}
										}
									}
								}
								JOINT LeftHandIndex1
								{
									OFFSET 11.334419 -0.901459 3.706815
									CHANNELS 3 Xrotation Yrotation Zrotation
									JOINT LeftHandIndex2
									{
										OFFSET 3.283112 0.000000 0.000000
										CHANNELS 3 Xrotation Yrotation Zrotation
										JOINT LeftHandIndex3
										{
											OFFSET 3.323853 0.000000 0.000000
											CHANNELS 3 Xrotation Yrotation Zrotation
											End Site
											{
												OFFSET -1.135597 3.097809 0.402452
											}
										}
									}
								}
								JOINT LeftHandMiddle1
								{
									OFFSET 11.335861 0.000000 0.000000
									CHANNELS 3 Xrotation Yrotation Zrotation
									JOINT LeftHandMiddle2
									{
										OFFSET 3.410492 0.000000 0.000000
										CHANNELS 3 Xrotation Yrotation Zrotation
										JOINT LeftHandMiddle3
										{
											OFFSET 3.312172 0.000000 0.000000
											CHANNELS 3 Xrotation Yrotation Zrotation
											End Site
											{
												OFFSET -1.150200 3.080154 0.400270
											}
										}
									}
								}
								JOINT LeftHandRing1
								{
									OFFSET 11.514786 -0.013176 -3.003090
									CHANNELS 3 Xrotation Yrotation Zrotation
									JOINT LeftHandRing2
									{
										OFFSET 3.053307 0.000000 0.000000
										CHANNELS 3 Xrotation Yrotation Zrotation
										JOINT LeftHandRing3
										{
											OFFSET 3.295807 0.000000 0.000000
											CHANNELS 3 Xrotation Yrotation Zrotation
											End Site
											{
												OFFSET -1.281006 3.013344 0.375733
											}
										}
									}
								}
								JOINT LeftHandPinky1
								{
									OFFSET 10.518692 -0.960396 -5.730441
									CHANNELS 3 Xrotation Yrotation Zrotation
									JOINT LeftHandPinky2
									{
										OFFSET 2.861649 0.000000 0.000000
										CHANNELS 3 Xrotation Yrotation Zrotation
										JOINT LeftHandPinky3
										{
											OFFSET 2.863380 0.000000 0.000000
											CHANNELS 3 Xrotation Yrotation Zrotation
											End Site
											{
												OFFSET -0.843597 2.711159 0.369971
											}
										}
									}
								}
							}
							JOINT LSleeve
							{
								OFFSET 6.676277 -0.344902 -1.011730
								CHANNELS 3 Xrotation Yrotation Zrotation
								End Site
								{
									OFFSET 0.000000 14.885353 0.000000
								}
							}
						}
					}
				}
				JOINT RightShoulder
				{
					OFFSET -6.197800 13.665199 -4.064700
					CHANNELS 3 Xrotation Yrotation Zrotation
					JOINT RightArm
					{
						OFFSET -7.778100 -0.187103 -1.709300
						CHANNELS 3 Xrotation Yrotation Zrotation
						JOINT RightForeArm
						{
							OFFSET -22.049376 0.000000 0.000000
							CHANNELS 3 Xrotation Yrotation Zrotation
							JOINT RightHand
							{
								OFFSET -23.009392 0.000000 0.000000
								CHANNELS 3 Xrotation Yrotation Zrotation
								JOINT RightHandThumb1
								{
									OFFSET -3.507191 -2.063065 3.133727
									CHANNELS 3 Xrotation Yrotation Zrotation
									JOINT RightHandThumb2
									{
										OFFSET -3.101337 -1.790558 1.790558
										CHANNELS 3 Xrotation Yrotation Zrotation
										JOINT RightHandThumb3
										{
											OFFSET -3.058640 -1.765907 1.765906
											CHANNELS 3 Xrotation Yrotation Zrotation
											End Site
											{
												OFFSET 0.415260 3.926476 -0.049563
											}
										}
									}
								}
								JOINT RightHandIndex1
								{
									OFFSET -11.334419 -0.901459 3.706815
									CHANNELS 3 Xrotation Yrotation Zrotation
									JOINT RightHandIndex2
									{
										OFFSET -3.283112 0.000000 0.000000
										CHANNELS 3 Xrotation Yrotation Zrotation
										JOINT RightHandIndex3
										{
											OFFSET -3.323853 0.000000 0.000000
											CHANNELS 3 Xrotation Yrotation Zrotation
											End Site
											{
												OFFSET 1.135597 3.097809 0.402452
											}
										}
									}
								}
								JOINT RightHandMiddle1
								{
									OFFSET -11.335861 0.000000 0.000000
									CHANNELS 3 Xrotation Yrotation Zrotation
									JOINT RightHandMiddle2
									{
										OFFSET -3.410492 0.000000 0.000000
										CHANNELS 3 Xrotation Yrotation Zrotation
										JOINT RightHandMiddle3
										{
											OFFSET -3.312172 0.000000 0.000000
											CHANNELS 3 Xrotation Yrotation Zrotation
											End Site
											{
												OFFSET 1.150200 3.080154 0.400270
											}
										}
									}
								}
								JOINT RightHandRing1
								{
									OFFSET -11.514786 -0.013176 -3.003090
									CHANNELS 3 Xrotation Yrotation Zrotation
									JOINT RightHandRing2
									{
										OFFSET -3.053307 0.000000 0.000000
										CHANNELS 3 Xrotation Yrotation Zrotation
										JOINT RightHandRing3
										{
											OFFSET -3.295807 0.000000 0.000000
											CHANNELS 3 Xrotation Yrotation Zrotation
											End Site
											{
												OFFSET 1.281006 3.013344 0.375733
											}
										}
									}
								}
								JOINT RightHandPinky1
								{
									OFFSET -10.518692 -0.960396 -5.730441
									CHANNELS 3 Xrotation Yrotation Zrotation
									JOINT RightHandPinky2
									{
										OFFSET -2.861649 0.000000 0.000000
										CHANNELS 3 Xrotation Yrotation Zrotation
										JOINT RightHandPinky3
										{
											OFFSET -2.863380 0.000000 0.000000
											CHANNELS 3 Xrotation Yrotation Zrotation
											End Site
											{
												OFFSET 0.843597 2.711159 0.369971
											}
										}
									}
								}
							}
							JOINT RSleeve
							{
								OFFSET -6.676277 -0.344902 -1.011730
								CHANNELS 3 Xrotation Yrotation Zrotation
								End Site
								{
									OFFSET 0.000000 14.885353 0.000000
								}
							}
						}
					}
				}
				JOINT Backpack
				{
					OFFSET 0.000000 -2.471497 36.677502
					CHANNELS 3 Xrotation Yrotation Zrotation
					End Site
					{
						OFFSET 0.000000 20.427315 0.000000
					}
				}
				JOINT Hood
				{
					OFFSET 0.000000 18.754097 -10.431000
					CHANNELS 3 Xrotation Yrotation Zrotation
					JOINT Hood1
					{
						OFFSET 0.000000 -5.011002 -7.685901
						CHANNELS 3 Xrotation Yrotation Zrotation
						End Site
						{
							OFFSET 0.000000 9.175140 0.000000
						}
					}
				}
				JOINT LHoodieString
				{
					OFFSET 5.250500 16.397697 3.089900
					CHANNELS 3 Xrotation Yrotation Zrotation
					JOINT LHoodieString1
					{
						OFFSET 0.257700 -6.364304 3.694600
						CHANNELS 3 Xrotation Yrotation Zrotation
						JOINT LHoodieString2
						{
							OFFSET 0.000000 -9.643799 2.679100
							CHANNELS 3 Xrotation Yrotation Zrotation
							End Site
							{
								OFFSET 0.000000 10.009018 0.000000
							}
						}
					}
				}
				JOINT RHoodieString
				{
					OFFSET -5.250500 16.397697 3.089900
					CHANNELS 3 Xrotation Yrotation Zrotation
					JOINT RHoodieString1
					{
						OFFSET -0.257700 -6.364304 3.694600
						CHANNELS 3 Xrotation Yrotation Zrotation
						JOINT RHoodieString2
						{
							OFFSET 0.000000 -9.643799 2.679100
							CHANNELS 3 Xrotation Yrotation Zrotation
							End Site
							{
								OFFSET 0.000000 10.009018 0.000000
							}
						}
					}
				}
			}
			JOINT LBackpack_Strap
			{
				OFFSET 15.223200 -7.719803 -6.610900
				CHANNELS 3 Xrotation Yrotation Zrotation
				End Site
				{
					OFFSET 0.000000 16.040596 0.000000
				}
			}
			JOINT RBackpack_Strap
			{
				OFFSET -15.223000 -7.719803 -6.610900
				CHANNELS 3 Xrotation Yrotation Zrotation
				End Site
				{
					OFFSET 0.000000 16.040596 0.000000
				}
			}
		}
	}
	JOINT BoyFacialAnim_Joint
	{
		OFFSET 1.000000 -82.208099 -1.550900
		CHANNELS 3 Xrotation Yrotation Zrotation
		End Site
		{
			OFFSET 0.000000 30.012791 0.000000
		}
	}
}
MOTION
Frames: 5
Frame Time: 0.016667
-0.035286 81.530060 0.563977 1.893934 -2.201431 -0.170043 0.000000 0.000000 0.000000 -7.143490 -4.926049 9.600313 13.510083 0.057570 -1.554751 -5.996169 14.459208 -8.508622 -0.000000 -0.000000 -0.000000 -0.000000 -0.000000 0.000000 0.000000 -0.000000 0.000000 -6.697514 -4.995243 -8.906203 14.678645 -0.320877 0.083129 -8.523813 -10.764241 7.681886 0.000000 0.000000 0.000000 0.000000 0.000000 0.000000 0.000001 -0.000001 0.000000 2.070900 0.288501 0.926132 3.430434 -0.015269 0.185037 3.430504 0.005499 0.178976 -3.527217 -0.011364 -0.032778 -2.723274 -0.261568 0.276206 -0.000000 0.000000 -0.000000 -0.000000 0.000000 -0.000000 -0.000000 0.000000 -0.000000 0.742832 8.952359 -13.053722 10.737610 -6.254789 -54.002611 -0.000002 -32.994240 0.000008 3.018194 -1.471484 -4.081438 -0.482871 3.821561 13.866295 21.372758 38.839843 0.020892 0.000000 -0.000003 -0.000002 1.076659 5.650986 -31.107089 2.579638 4.853701 -55.959016 0.000001 -0.000003 0.000001 2.297558 7.098890 -41.286602 3.978842 5.544426 -71.308036 0.000001 -0.000000 0.000000 2.297566 7.098883 -41.286602 3.978844 5.544428 -71.308022 -0.000001 0.000001 -0.000000 2.296098 7.100152 -41.286407 3.978846 5.544439 -71.308029 0.000001 -0.000001 -0.000000 -0.000000 -0.000000 -0.000004 1.078067 -8.352865 11.371667 3.407868 18.890951 61.317333 -0.000005 23.538777 0.000022 1.182695 -2.960231 -1.406711 -5.104759 0.227802 -17.972080 16.981351 -29.890882 7.725575 -0.000000 -0.000001 0.000001 0.285281 -3.752868 14.876237 3.775970 -4.573226 79.081289 0.000001 0.000001 0.000004 1.456647 -5.863610 32.031610 4.654519 -4.657178 89.967354 -0.000000 -0.000000 -0.000000 1.456653 -5.863606 32.031586 4.654521 -4.657176 89.967368 -0.000001 -0.000001 0.000000 1.456655 -5.863602 32.031600 4.654539 -4.657193 89.967361 0.000001 -0.000001 -0.000003 0.000001 0.000000 -0.000001 -0.000000 0.000000 0.000000 -0.000000 0.000000 0.000000 -0.000000 0.000000 0.000000 -0.000000 0.000000 0.000000 -0.000000 0.000000 0.000000 -0.000001 0.000000 0.000000 -0.000000 0.000000 0.000000 -0.000000 0.000000 0.000000 -0.000001 0.000000 0.000000 0.000001 -0.000000 -0.000000 0.000001 -0.000000 -0.000000 0.000000 0.000000 0.000000 
-0.149362 81.556931 0.506571 1.872879 -2.362017 0.100341 -0.000000 -0.000000 0.000000 -8.675807 -5.340089 9.352397 16.065713 -0.041219 -1.557503 -5.281456 14.597576 -9.066972 -0.000000 0.000000 -0.000000 -0.000000 0.000000 -0.000000 0.000000 -0.000000 0.000000 -6.932272 -4.980061 -9.115766 14.968786 -0.194379 0.072752 -8.629486 -10.688032 7.587509 0.000000 0.000000 -0.000000 0.000000 0.000000 -0.000000 0.000001 0.000000 -0.000000 2.291588 -0.003567 0.717698 3.107405 -0.084774 0.120758 3.107843 -0.065907 0.115675 -3.226255 0.031549 -0.023639 -2.059490 0.093460 0.433889 0.000001 -0.000000 -0.000000 0.000001 -0.000000 -0.000000 0.000001 -0.000000 -0.000000 0.736512 8.806727 -13.031567 10.933041 -6.745927 -54.051044 -0.000001 -32.945281 -0.000009 3.215434 -1.441564 -4.145379 -1.226164 4.012607 13.215952 20.501617 38.197765 1.391578 -0.000002 -0.000003 0.000001 1.051746 5.612621 -30.821218 2.451671 4.765053 -54.432786 -0.000003 0.000002 -0.000003 2.190040 7.000236 -40.472716 3.756132 5.464391 -68.986564 -0.000001 -0.000001 -0.000000 2.198453 7.006919 -40.576276 3.751190 5.462503 -68.934777 -0.000001 0.000002 -0.000002 2.205387 7.014853 -40.679633 3.756140 5.464403 -68.986550 0.000000 -0.000001 0.000001 0.000000 0.000000 -0.000001 1.091566 -8.197192 11.485086 3.504177 18.923106 61.185989 -0.000001 23.701511 -0.000000 1.551632 -2.868865 -1.163851 -5.642960 -0.147087 -17.426138 16.936704 -29.156940 6.578088 0.000003 -0.000003 -0.000002 0.293425 -3.774310 15.343504 3.548777 -4.523644 76.216988 -0.000000 0.000000 -0.000002 1.392271 -5.779187 31.586739 4.375146 -4.648640 86.524372 0.000001 0.000000 0.000002 1.398790 -5.785309 31.693164 4.370822 -4.648388 86.471083 0.000001 0.000000 0.000002 1.399739 -5.794858 31.799021 4.375165 -4.648665 86.524365 -0.000001 0.000001 0.000000 0.000001 -0.000000 0.000000 -0.000000 0.000000 -0.000000 -0.000000 0.000000 -0.000000 -0.000000 0.000000 -0.000000 -0.000000 0.000000 -0.000000 -0.000000 0.000000 -0.000000 -0.000001 0.000000 -0.000000 -0.000000 0.000000 -0.000000 -0.000000 0.000000 -0.000000 -0.000001 0.000000 -0.000000 0.000000 0.000000 -0.000000 0.000000 0.000000 -0.000000 -0.000000 -0.000000 0.000000 
-0.368918 81.566605 0.448393 1.851923 -2.500955 0.387091 0.000000 0.000000 0.000000 -10.735428 -5.057102 9.350923 19.125407 -0.157732 -1.571949 -4.029895 13.850836 -9.923656 -0.000001 0.000000 -0.000000 -0.000001 0.000000 0.000000 0.000001 -0.000000 0.000002 -7.296592 -4.931719 -9.266291 15.562813 -0.068517 0.072449 -8.922700 -10.649213 7.396393 -0.000000 0.000000 0.000000 -0.000000 0.000000 0.000000 -0.000002 -0.000001 -0.000000 2.559234 -0.359514 0.499705 2.747828 -0.169164 0.053064 2.748702 -0.152292 0.049085 -2.889075 0.082213 -0.012975 -1.319717 0.514194 0.602907 0.000000 -0.000000 -0.000000 0.000000 -0.000000 -0.000000 0.000000 -0.000000 -0.000000 0.729839 8.654327 -13.018117 11.156660 -7.294852 -54.080656 -0.000004 -32.921044 -0.000000 3.429489 -1.421114 -4.175583 -2.021793 4.232556 12.518348 19.606097 37.444514 2.843479 -0.000001 -0.000003 -0.000002 1.025034 5.570827 -30.510110 2.320104 4.668512 -52.832975 0.000000 0.000002 -0.000003 2.077957 6.892805 -39.613239 3.527050 5.371190 -66.560713 -0.000001 0.000000 0.000004 2.094712 6.906826 -39.824333 3.517168 5.366929 -66.455227 -0.000001 -0.000001 0.000001 2.110021 6.922051 -40.035229 3.527058 5.371208 -66.560713 -0.000002 -0.000002 0.000001 0.000001 -0.000000 0.000001 1.096791 -8.002335 11.568714 3.614132 18.945282 61.044645 0.000002 23.957204 -0.000002 1.916258 -2.796681 -0.913602 -6.220037 -0.561324 -16.846206 16.880401 -28.337796 5.350615 0.000001 -0.000000 -0.000001 0.301841 -3.796165 15.831038 3.306243 -4.457350 73.119962 -0.000001 0.000000 0.000000 1.323345 -5.686545 31.092862 4.074452 -4.620651 82.804289 -0.000002 -0.000000 -0.000002 1.336531 -5.699509 31.313781 4.065541 -4.619528 82.693776 0.000001 0.000000 0.000000 1.339910 -5.718435 31.533757 4.074471 -4.620674 82.804296 0.000001 -0.000000 -0.000002 0.000000 0.000000 0.000000 -0.000000 -0.000000 -0.000000 -0.000000 -0.000000 -0.000000 -0.000000 -0.000000 -0.000000 -0.000000 -0.000000 -0.000000 -0.000000 -0.000000 -0.000000 -0.000001 -0.000000 -0.000000 -0.000000 -0.000000 -0.000000 -0.000000 -0.000000 -0.000000 -0.000001 -0.000000 -0.000000 -0.000000 0.000000 -0.000000 -0.000000 0.000000 -0.000000 0.000000 0.000000 0.000000 
-0.613135 81.496567 0.389342 1.831469 -2.635551 0.621801 -0.000000 -0.000000 0.000000 -15.048234 -4.440306 8.750660 25.922026 0.487469 -1.613839 -3.196058 12.468965 -8.663926 0.000000 -0.000000 0.000000 0.000000 -0.000000 0.000000 0.000001 0.000000 0.000001 -7.943528 -4.808785 -9.369855 16.765799 0.094590 0.082686 -9.534772 -10.683270 7.171724 -0.000000 0.000002 -0.000000 -0.000000 0.000002 -0.000000 0.000001 0.000001 0.000001 2.850033 -0.741887 0.332533 2.373875 -0.260962 -0.016101 2.375219 -0.246129 -0.018902 -2.534350 0.136653 -0.001104 -0.540679 0.969614 0.774560 0.000000 -0.000000 -0.000000 0.000000 -0.000000 -0.000000 0.000000 -0.000000 -0.000000 0.723120 8.496002 -13.005182 11.389998 -7.878149 -54.103977 -0.000004 -32.909023 -0.000016 3.676873 -1.401127 -4.194155 -2.847528 4.478025 11.792755 18.719759 36.603838 4.328827 -0.000003 -0.000001 0.000002 0.997334 5.526787 -30.182930 2.187634 4.565376 -51.187220 0.000002 0.000000 -0.000000 1.964215 6.778794 -38.725260 3.296138 5.265528 -64.069825 0.000000 -0.000001 0.000002 1.989076 6.800762 -39.046300 3.281434 5.258376 -63.909493 -0.000001 0.000002 -0.000000 2.012554 6.823812 -39.367209 3.296155 5.265533 -64.069852 -0.000001 -0.000001 0.000001 -0.000001 0.000001 0.000001 1.096978 -7.781050 11.642711 3.743079 18.979045 60.878863 0.000007 24.271415 -0.000015 2.271885 -2.732255 -0.657021 -6.820225 -1.005229 -16.249157 16.817253 -27.461880 4.075793 0.000000 0.000002 0.000000 0.310438 -3.818219 16.330827 3.056555 -4.374055 69.877814 -0.000002 0.000000 0.000000 1.252313 -5.588265 30.568184 3.762432 -4.570603 78.911491 -0.000001 0.000001 0.000002 1.272049 -5.608656 30.908566 3.748855 -4.567935 78.741139 0.000000 0.000000 0.000006 1.278702 -5.636917 31.247651 3.762447 -4.570611 78.911491 -0.000000 -0.000001 -0.000002 0.000002 0.000001 0.000000 0.000000 0.000000 -0.000000 0.000000 0.000000 -0.000000 0.000000 0.000000 -0.000000 0.000000 0.000000 -0.000000 0.000000 0.000000 -0.000000 -0.000001 0.000000 -0.000000 0.000000 0.000000 -0.000000 0.000000 0.000000 -0.000000 -0.000001 0.000000 -0.000000 -0.000000 0.000000 -0.000000 -0.000000 0.000000 -0.000000 -0.000000 -0.000000 0.000000 
-0.885718 81.380539 0.334419 1.811500 -2.779172 0.836621 0.000000 0.000000 -0.000000 -19.332027 -3.230091 8.278381 32.043300 0.387613 -1.624536 -0.532691 10.407253 -8.582874 0.000001 -0.000001 -0.000000 0.000001 -0.000001 -0.000000 0.000001 0.000000 -0.000000 -8.737628 -4.601729 -9.434091 18.306809 0.300264 0.103748 -10.333352 -10.810385 6.902623 0.000000 0.000000 -0.000000 0.000000 0.000000 -0.000000 0.000000 -0.000000 -0.000000 3.159667 -1.133006 0.175359 1.995517 -0.356287 -0.085877 1.997350 -0.343515 -0.087452 -2.167620 0.192986 0.012224 0.272890 1.446352 0.944674 0.000001 0.000000 -0.000000 0.000001 0.000000 -0.000000 0.000001 0.000000 -0.000000 0.716351 8.326971 -12.991419 11.631051 -8.501350 -54.118738 -0.000003 -32.909443 -0.000017 3.970509 -1.376473 -4.206904 -3.703761 4.751280 11.038727 17.852965 35.665718 5.843077 -0.000004 -0.000001 -0.000001 0.968652 5.480354 -29.838648 2.054428 4.455277 -49.493405 -0.000002 -0.000001 -0.000002 1.848983 6.657822 -37.807293 3.063949 5.146638 -61.511413 -0.000000 -0.000001 0.000002 1.881673 6.688344 -38.240843 3.044547 5.136097 -61.294896 0.000001 0.000000 -0.000000 1.913064 6.719820 -38.674280 3.063960 5.146651 -61.511400 -0.000000 -0.000002 0.000001 0.000000 0.000000 0.000001 1.093916 -7.533886 11.715180 3.896484 19.033862 60.675555 0.000006 24.640532 -0.000024 2.619216 -2.664682 -0.388911 -7.444119 -1.480925 -15.635503 16.746444 -26.520484 2.754834 -0.000000 0.000001 -0.000001 0.319196 -3.840485 16.842680 2.800759 -4.271931 66.485389 -0.000001 0.000000 0.000000 1.179271 -5.484026 30.011134 3.440481 -4.495773 74.839803 -0.000001 0.000001 0.000002 1.205412 -5.512469 30.476167 3.422250 -4.490806 74.607085 -0.000001 0.000000 0.000000 1.216191 -5.549992 30.939729 3.440488 -4.495792 74.839776 -0.000001 0.000002 -0.000001 -0.000001 -0.000001 -0.000001 0.000000 -0.000000 0.000000 0.000000 -0.000000 0.000000 0.000000 -0.000000 0.000000 0.000000 -0.000000 0.000000 0.000000 -0.000000 0.000000 0.000000 -0.000000 0.000000 0.000000 -0.000000 0.000000 0.000000 -0.000000 0.000000 0.000000 -0.000000 0.000000 -0.000001 0.000001 -0.000000 -0.000001 0.000001 -0.000000 0.000000 0.000000 -0.000000 
